<?xml version="1.0" encoding="UTF-8" standalone="no"?>
<svg
   xmlns:dc="http://purl.org/dc/elements/1.1/"
   xmlns:cc="http://creativecommons.org/ns#"
   xmlns:rdf="http://www.w3.org/1999/02/22-rdf-syntax-ns#"
   xmlns:svg="http://www.w3.org/2000/svg"
   xmlns="http://www.w3.org/2000/svg"
   xmlns:sodipodi="http://sodipodi.sourceforge.net/DTD/sodipodi-0.dtd"
   xmlns:inkscape="http://www.inkscape.org/namespaces/inkscape"
   width="170mm"
   height="170mm"
   viewBox="0 0 170 170"
   version="1.1"
   id="svg8"
   sodipodi:docname="o-feed.svg"
   inkscape:version="1.0.2 (e86c8708, 2021-01-15)">
  <defs
     id="defs2" />
  <sodipodi:namedview
     id="base"
     pagecolor="#ffffff"
     bordercolor="#666666"
     borderopacity="1.0"
     inkscape:pageopacity="0.0"
     inkscape:pageshadow="2"
     inkscape:zoom="0.49497475"
     inkscape:cx="337.81384"
     inkscape:cy="280.13177"
     inkscape:document-units="mm"
     inkscape:current-layer="layer1"
     inkscape:document-rotation="0"
     showgrid="false"
     fit-margin-top="0"
     fit-margin-left="0"
     fit-margin-right="0"
     fit-margin-bottom="0"
     inkscape:window-width="1680"
     inkscape:window-height="1050"
     inkscape:window-x="0"
     inkscape:window-y="0"
     inkscape:window-maximized="0" />
  <metadata
     id="metadata5">
    <rdf:RDF>
      <cc:Work
         rdf:about="">
        <dc:format>image/svg+xml</dc:format>
        <dc:type
           rdf:resource="http://purl.org/dc/dcmitype/StillImage" />
        <dc:title></dc:title>
      </cc:Work>
    </rdf:RDF>
  </metadata>
  <g
     inkscape:label="Layer 1"
     inkscape:groupmode="layer"
     id="layer1"
     transform="translate(-21.744445,-63.910369)">
    <path
       id="path24"
       style="fill:#03a65a;fill-opacity:1;stroke-width:1.06667"
       d="M 494.50781 1.5683594 C 487.95525 1.3835844 481.45967 2.7432875 474.96875 5.6464844 C 466.33529 9.5079672 456.67681 20.532739 397.11523 94.511719 C 379.04849 116.95171 364.18906 135.31083 364.0957 135.31055 C 364.00242 135.31025 361.28721 134.26504 358.06055 132.98633 C 352.51141 130.78724 350.51883 130.66009 321.25977 130.64648 C 294.50775 130.63406 289.76727 130.87714 286.19531 132.43945 C 283.92367 133.43303 281.2647 134.24609 280.28516 134.24609 C 277.61091 134.24609 272.16892 128.07538 245.47461 94.779297 C 183.87058 17.939975 175.10198 8.1313112 164.45898 4.1484375 C 156.468 1.1580148 144.55709 0.81850202 136.14258 3.3398438 C 126.7178 6.1639105 117.43413 12.932688 103.12109 27.416016 C 79.557818 51.259691 66.029495 75.106362 62.544922 98.9375 C 59.810358 117.63918 66.964676 139.1167 81.412109 155.57812 C 100.65104 177.49897 134.54944 198.20234 163.72656 205.84961 C 168.48623 207.09708 177.96688 208.34564 186.32617 208.82617 C 194.24617 209.28142 203.12722 209.72437 206.06055 209.81055 C 213.64277 210.03354 232.19468 208.71263 232.17578 207.95117 C 232.1666 207.59964 225.26185 203.58798 216.83203 199.03516 C 173.99914 175.9018 148.1421 154.42877 137.52344 133.17773 C 133.97102 126.06828 133.52719 124.28718 133.52734 117.17773 C 133.52749 110.28892 133.97117 108.37229 136.72656 103.37891 C 140.70871 96.162356 153.43355 83.056678 159.12695 80.306641 C 162.42433 78.713936 165.69609 78.246094 173.52734 78.246094 C 183.06491 78.246094 184.03681 78.457748 190.06055 81.849609 C 203.99824 89.69773 262.41183 130.62085 268.8125 137.02148 C 271.57601 139.78523 271.77126 140.50149 271.24023 145.93555 C 270.9226 149.1856 270.36031 159.30378 269.99219 168.41992 C 269.11674 190.08826 269.73878 192.44824 278.62891 201.17773 L 285.41992 207.8457 L 321.12109 207.8457 L 356.82227 207.8457 L 362.93359 202.25781 C 372.00571 193.96644 372.11121 193.52111 371.82812 164.67969 C 371.69448 151.06538 371.93812 139.3556 372.36914 138.6582 C 374.16196 135.75736 416.10132 105.33266 439.43945 90.001953 C 454.77644 79.927173 460.26236 77.708672 469.80469 77.722656 C 479.68898 77.736981 486.21834 80.935263 495.39844 90.259766 C 510.36775 105.46462 512.97671 118.01867 504.62305 134.65039 C 495.5749 152.66488 468.11823 175.43399 429.01172 197.35352 C 420.28687 202.24388 412.97406 206.78585 412.75977 207.44727 C 412.21351 209.13309 433.96258 210.37207 448.43945 209.47852 C 478.81064 207.60391 500.44862 200.69174 526.39258 184.57617 C 564.97509 160.60992 584.55695 129.056 579.90234 98.349609 C 576.00138 72.614946 560.56623 47.050652 533.37109 21.279297 C 524.97756 13.325206 519.91062 9.448375 514.39062 6.7578125 C 507.67006 3.4820657 501.06038 1.7531343 494.50781 1.5683594 z M 27.925781 216.91211 L 22.890625 219.41406 C 17.151186 222.26677 11.252917 228.32933 8.484375 234.2207 C 6.7691876 237.87033 6.59375 242.36112 6.59375 282.51172 L 6.59375 326.7793 L 9.1113281 331.57812 C 13.593583 340.1247 18.469819 344.16179 27.925781 347.15234 C 31.253394 348.20456 58.191253 348.51866 150.31641 348.57422 L 341.49414 348.47461 L 372.25 332.32422 C 371.93736 329.66664 371.73242 326.96479 371.73242 324.21484 C 371.73242 287.36778 401.59959 257.51758 438.42969 257.51758 C 475.25132 257.51758 505.12109 287.36778 505.12109 324.21484 C 505.12109 332.74104 503.50385 340.88576 500.58789 348.38086 L 613.52734 348.11133 L 618.85938 345.6543 C 625.631 342.53445 629.51995 338.83352 633.0918 332.11133 L 635.92578 326.7793 L 635.92578 282.51172 C 635.92578 242.59522 635.74367 237.85628 634.0625 234.28516 C 631.2551 228.32182 626.07866 222.97241 620.02344 219.77734 L 614.59375 216.91211 L 321.25977 216.91211 L 27.925781 216.91211 z M 81.259766 355.57812 L 76.224609 358.08203 C 70.495942 360.92938 64.283456 367.31726 61.689453 373.0293 C 60.082889 376.56667 59.925781 387.66537 59.925781 497.97852 C 59.925781 632.831 59.339461 622.25663 67.314453 631.08398 C 71.221578 635.40871 76.483703 638.50668 82.326172 639.91992 C 84.086184 640.34565 127.16724 640.74264 178.06055 640.80273 L 468.72656 640.67383 L 561.25977 640.37891 L 566.29492 637.875 C 572.03432 635.02229 577.93455 628.95974 580.70312 623.06836 C 582.47837 619.29049 582.59375 611.64709 582.59375 497.97852 C 582.59375 384.30994 582.47848 376.66654 580.70312 372.88867 C 577.93455 366.9973 572.03432 360.93471 566.29492 358.08203 L 561.25977 355.57812 L 497.29102 355.57812 C 486.06917 376.59705 463.92673 390.90625 438.42969 390.90625 C 421.44948 390.90625 405.95614 384.53827 394.17188 374.0957 L 270.7168 438.92578 C 270.75248 439.74084 270.77734 440.55617 270.77734 441.38086 C 270.77734 445.4818 270.38773 449.47958 269.69141 453.35938 L 389.0293 512.27344 C 401.22111 498.82516 418.82998 490.38477 438.43359 490.38477 C 475.25523 490.38477 505.12305 520.25255 505.12305 557.07422 C 505.12305 593.90424 475.25523 623.77344 438.43359 623.77344 C 401.60353 623.77344 371.73633 593.90424 371.73633 557.07422 C 371.73633 556.82711 371.75 556.60038 371.75 556.34375 L 245.19727 493.86523 C 233.87143 502.75446 219.59082 508.06055 204.08789 508.06055 L 204.08594 508.06055 C 167.25585 508.06055 137.39648 478.20897 137.39648 441.37891 C 137.39648 404.55724 167.25585 374.68945 204.08594 374.68945 C 223.05284 374.68945 240.15211 382.61932 252.29297 395.32031 L 327.9707 355.57812 L 321.25977 355.57812 L 81.259766 355.57812 z "
       transform="matrix(0.26458333,0,0,0.26458333,21.744445,63.910369)" />
  </g>
</svg>
