<?xml version="1.0" encoding="UTF-8" standalone="no"?>
<svg
   xmlns:dc="http://purl.org/dc/elements/1.1/"
   xmlns:cc="http://creativecommons.org/ns#"
   xmlns:rdf="http://www.w3.org/1999/02/22-rdf-syntax-ns#"
   xmlns:svg="http://www.w3.org/2000/svg"
   xmlns="http://www.w3.org/2000/svg"
   xmlns:sodipodi="http://sodipodi.sourceforge.net/DTD/sodipodi-0.dtd"
   xmlns:inkscape="http://www.inkscape.org/namespaces/inkscape"
   width="170mm"
   height="170mm"
   viewBox="0 0 170 170"
   version="1.1"
   id="svg8"
   sodipodi:docname="agencia-gift.svg"
   inkscape:version="1.0.2 (e86c8708, 2021-01-15)">
  <defs
     id="defs2" />
  <sodipodi:namedview
     id="base"
     pagecolor="#ffffff"
     bordercolor="#666666"
     borderopacity="1.0"
     inkscape:pageopacity="0.0"
     inkscape:pageshadow="2"
     inkscape:zoom="0.49497475"
     inkscape:cx="337.81384"
     inkscape:cy="280.13177"
     inkscape:document-units="mm"
     inkscape:current-layer="layer1"
     inkscape:document-rotation="0"
     showgrid="false"
     fit-margin-top="0"
     fit-margin-left="0"
     fit-margin-right="0"
     fit-margin-bottom="0"
     inkscape:window-width="1680"
     inkscape:window-height="1050"
     inkscape:window-x="0"
     inkscape:window-y="0"
     inkscape:window-maximized="0" />
  <metadata
     id="metadata5">
    <rdf:RDF>
      <cc:Work
         rdf:about="">
        <dc:format>image/svg+xml</dc:format>
        <dc:type
           rdf:resource="http://purl.org/dc/dcmitype/StillImage" />
        <dc:title></dc:title>
      </cc:Work>
    </rdf:RDF>
  </metadata>
  <g
     inkscape:label="Layer 1"
     inkscape:groupmode="layer"
     id="layer1"
     transform="translate(-21.744445,-63.910369)">
    <path
       style="fill:#03a65a;fill-opacity:1;stroke-width:0.282222"
       d="m 43.526672,233.22243 c -1.54582,-0.37392 -2.93814,-1.19335 -3.9719,-2.3376 -2.11005,-2.33557 -1.95477,0.46212 -1.95477,-35.2176 0,-29.18702 0.0414,-32.12346 0.46647,-33.05939 0.68633,-1.51131 2.32999,-3.20173 3.8457,-3.95509 l 1.33228,-0.66219 h 63.500008 63.5 l 1.33228,0.66219 c 1.51855,0.75477 3.07934,2.35888 3.81186,3.91764 0.46973,0.99956 0.5003,3.02203 0.5003,33.09684 0,30.07481 -0.0306,32.09728 -0.5003,33.09684 -0.73252,1.55876 -2.29331,3.16286 -3.81186,3.91764 l -1.33228,0.66219 -24.48278,0.0781 -24.48278,0.078 v -34.72083 -34.72083 h -13.97 -13.970008 v 34.71333 34.71334 l -24.48278,-0.0289 c -13.46552,-0.0159 -24.86377,-0.12105 -25.32944,-0.23369 z m -14.39333,-77.46109 c -2.50189,-0.79125 -3.79247,-1.8595 -4.9784,-4.12078 l -0.66605,-1.27 v -11.71222 c 0,-10.62318 0.0465,-11.81121 0.50031,-12.77684 0.73251,-1.55876 2.2933,-3.16286 3.81186,-3.91764 l 1.33228,-0.66219 h 77.611118 77.6111 l 1.43652,0.75799 c 1.60211,0.84536 2.97185,2.26083 3.71464,3.83863 0.44481,0.94486 0.49328,2.19881 0.49328,12.76005 v 11.71222 l -0.74979,1.41111 c -0.94505,1.77858 -1.9741,2.75774 -3.76576,3.5832 l -1.41111,0.65013 -31.5357,0.0753 -31.53569,0.0753 -0.0732,-14.04532 -0.0732,-14.04532 h -13.97 -13.969997 l -0.0732,14.04055 -0.0732,14.04056 -31.25348,-0.0189 c -24.37478,-0.0147 -31.5019,-0.0975 -32.382331,-0.3759 z m 41.91,-36.59904 c -2.21173,-0.12714 -4.72004,-0.45753 -5.97937,-0.78759 -7.71978,-2.02334 -16.689,-7.50092 -21.7793,-13.30081 -3.82255,-4.35542 -5.71548,-10.038159 -4.99196,-14.986313 0.92196,-6.305322 4.50164,-12.614908 10.73609,-18.923547 3.78699,-3.832047 6.24325,-5.622919 8.73689,-6.37012 2.22634,-0.667105 5.37781,-0.576996 7.49209,0.21422 2.81596,1.053802 5.13553,3.648687 21.43493,23.979091 7.06287,8.809589 8.50292,10.442222 9.21048,10.442222 0.25917,0 0.96298,-0.215087 1.56402,-0.477971 0.94508,-0.413363 2.19911,-0.477456 9.277248,-0.474168 7.74146,0.0036 8.26846,0.0371 9.73667,0.618942 0.85372,0.338325 1.57241,0.615199 1.59709,0.615278 0.0247,7.6e-5 3.95591,-4.857609 8.73607,-10.794858 15.759,-19.573605 18.31471,-22.490795 20.59898,-23.512479 3.43478,-1.536275 6.87404,-1.439292 10.43034,0.294124 1.4605,0.711878 2.80138,1.737738 5.02217,3.842258 7.19538,6.818671 11.27891,13.582447 12.31104,20.39141 1.23153,8.124399 -3.94923,16.472831 -14.15752,22.813901 -6.86434,4.26391 -12.58936,6.0928 -20.62507,6.58879 -3.83034,0.23642 -9.58519,-0.091 -9.44066,-0.53704 0.0567,-0.175 1.99183,-1.37684 4.30028,-2.67075 10.34693,-5.79954 17.61152,-11.82396 20.00551,-16.590294 2.21024,-4.400477 1.52002,-7.721989 -2.44061,-11.74494 -2.4289,-2.467108 -4.1566,-3.313433 -6.77182,-3.317223 -2.52474,-0.0037 -3.9764,0.583379 -8.03431,3.248998 -6.17488,4.056249 -17.27107,12.106103 -17.74542,12.873619 -0.11404,0.18452 -0.17841,3.28268 -0.14305,6.8848 0.0749,7.63096 0.047,7.74896 -2.35333,9.94272 l -1.6174,1.47822 h -9.44592 -9.445918 l -1.79634,-1.76389 c -2.35218,-2.30968 -2.51686,-2.93428 -2.28523,-8.66736 0.0974,-2.41198 0.24593,-5.08898 0.32997,-5.94889 0.1405,-1.43776 0.0888,-1.6274 -0.64238,-2.35864 -1.69351,-1.6935 -17.1488,-12.521251 -20.83648,-14.597733 -1.59378,-0.89743 -1.85097,-0.95349 -4.37445,-0.95349 -2.07202,0 -2.93757,0.123874 -3.81,0.545277 -1.50638,0.727614 -4.87301,4.195513 -5.92662,6.104892 -0.72903,1.321166 -0.84663,1.828277 -0.84667,3.650942 -4e-5,1.881042 0.11769,2.352291 1.0576,4.233333 2.80952,5.622669 9.65095,11.303569 20.98382,17.424269 2.23039,1.2046 4.05724,2.26627 4.05967,2.35928 0.005,0.20147 -4.90389,0.55103 -6.91002,0.49203 -0.77611,-0.0228 -3.12561,-0.14006 -5.22111,-0.26051 z"
       id="path24"
       sodipodi:nodetypes="ssscscccssssscccccccccssscscscscccssscssccccccccccccscsssssssssssssssssssssscsssscccscscssssscsccs" />
  </g>
</svg>
